REM DIRINDEX 1\2\4,1\2\5,1\2\6,1\2\7,1\3\8,1\3\9
REM DIRNAME cjc037,folder01,folder02,folder03,folder04,folder05,folder06,folder07,folder08
TITLE ""
FILE "Disc1Track07.mp3" MP3
  TRACK 01 AUDIO
    TITLE "0:"
    INDEX 01 00:00:00
  TRACK 02 AUDIO
    TITLE "4:cjc037_0391"
    INDEX 01 00:00:05
  TRACK 03 AUDIO
    TITLE "0:"
    INDEX 01 00:01:32
  TRACK 04 AUDIO
    TITLE "4:cjc037_0392"
    INDEX 01 00:02:28
  TRACK 05 AUDIO
    TITLE "0:"
    INDEX 01 00:03:64
  TRACK 06 AUDIO
    TITLE "5:cjc037_0393"
    INDEX 01 00:04:38
  TRACK 07 AUDIO
    TITLE "0:"
    INDEX 01 00:07:19
  TRACK 08 AUDIO
    TITLE "6:cjc037_0394"
    INDEX 01 00:10:55
  TRACK 09 AUDIO
    TITLE "0:"
    INDEX 01 00:13:57
  TRACK 10 AUDIO
    TITLE "7:cjc037_0395"
    INDEX 01 00:17:16
  TRACK 11 AUDIO
    TITLE "0:"
    INDEX 01 00:19:34
  TRACK 12 AUDIO
    TITLE "4:cjc037_0396"
    INDEX 01 00:21:68
  TRACK 13 AUDIO
    TITLE "0:"
    INDEX 01 00:23:28
  TRACK 14 AUDIO
    TITLE "5:cjc037_0397"
    INDEX 01 00:24:08
  TRACK 15 AUDIO
    TITLE "0:"
    INDEX 01 00:29:19
  TRACK 16 AUDIO
    TITLE "6:cjc037_0398"
    INDEX 01 00:32:54
  TRACK 17 AUDIO
    TITLE "0:"
    INDEX 01 00:36:33
  TRACK 18 AUDIO
    TITLE "7:cjc037_0399"
    INDEX 01 00:39:68
  TRACK 19 AUDIO
    TITLE "0:"
    INDEX 01 00:42:49
  TRACK 20 AUDIO
    TITLE "4:cjc037_0400"
    INDEX 01 00:45:14
  TRACK 21 AUDIO
    TITLE "0:"
    INDEX 01 00:46:51
  TRACK 22 AUDIO
    TITLE "5:cjc037_0401"
    INDEX 01 00:47:32
  TRACK 23 AUDIO
    TITLE "0:"
    INDEX 01 00:51:50
  TRACK 24 AUDIO
    TITLE "6:cjc037_0402"
    INDEX 01 00:55:10
  TRACK 25 AUDIO
    TITLE "0:"
    INDEX 01 00:57:64
  TRACK 26 AUDIO
    TITLE "7:cjc037_0403"
    INDEX 01 01:01:23
  TRACK 27 AUDIO
    TITLE "0:"
    INDEX 01 01:03:22
  TRACK 28 AUDIO
    TITLE "4:cjc037_0404"
    INDEX 01 01:05:56
  TRACK 29 AUDIO
    TITLE "0:"
    INDEX 01 01:06:61
  TRACK 30 AUDIO
    TITLE "5:cjc037_0405"
    INDEX 01 01:07:33
  TRACK 31 AUDIO
    TITLE "0:"
    INDEX 01 01:11:56
  TRACK 32 AUDIO
    TITLE "6:cjc037_0406"
    INDEX 01 01:15:11
  TRACK 33 AUDIO
    TITLE "0:"
    INDEX 01 01:18:62
  TRACK 34 AUDIO
    TITLE "7:cjc037_0407"
    INDEX 01 01:22:21
  TRACK 35 AUDIO
    TITLE "0:"
    INDEX 01 01:25:11
  TRACK 36 AUDIO
    TITLE "4:cjc037_0408"
    INDEX 01 01:27:42
  TRACK 37 AUDIO
    TITLE "0:"
    INDEX 01 01:29:03
  TRACK 38 AUDIO
    TITLE "5:cjc037_0409"
    INDEX 01 01:29:50
  TRACK 39 AUDIO
    TITLE "0:"
    INDEX 01 01:35:02
  TRACK 40 AUDIO
    TITLE "6:cjc037_0410"
    INDEX 01 01:38:34
  TRACK 41 AUDIO
    TITLE "0:"
    INDEX 01 01:42:61
  TRACK 42 AUDIO
    TITLE "7:cjc037_0411"
    INDEX 01 01:46:23
  TRACK 43 AUDIO
    TITLE "0:"
    INDEX 01 01:49:51
  TRACK 44 AUDIO
    TITLE "4:cjc037_0412"
    INDEX 01 01:52:08
  TRACK 45 AUDIO
    TITLE "0:"
    INDEX 01 01:53:25
  TRACK 46 AUDIO
    TITLE "5:cjc037_0413"
    INDEX 01 01:54:03
  TRACK 47 AUDIO
    TITLE "0:"
    INDEX 01 01:59:28
  TRACK 48 AUDIO
    TITLE "6:cjc037_0414"
    INDEX 01 02:02:62
  TRACK 49 AUDIO
    TITLE "0:"
    INDEX 01 02:06:24
  TRACK 50 AUDIO
    TITLE "7:cjc037_0415"
    INDEX 01 02:09:60
  TRACK 51 AUDIO
    TITLE "0:"
    INDEX 01 02:12:40
  TRACK 52 AUDIO
    TITLE "4:cjc037_0416"
    INDEX 01 02:14:73
  TRACK 53 AUDIO
    TITLE "0:"
    INDEX 01 02:16:28
  TRACK 54 AUDIO
    TITLE "5:cjc037_0417"
    INDEX 01 02:17:02
  TRACK 55 AUDIO
    TITLE "0:"
    INDEX 01 02:21:73
  TRACK 56 AUDIO
    TITLE "6:cjc037_0418"
    INDEX 01 02:25:35
  TRACK 57 AUDIO
    TITLE "0:"
    INDEX 01 02:28:59
  TRACK 58 AUDIO
    TITLE "7:cjc037_0419"
    INDEX 01 02:32:18
  TRACK 59 AUDIO
    TITLE "0:"
    INDEX 01 02:34:46
  TRACK 60 AUDIO
    TITLE "4:cjc037_0420"
    INDEX 01 02:37:07
  TRACK 61 AUDIO
    TITLE "0:"
    INDEX 01 02:38:34
  TRACK 62 AUDIO
    TITLE "5:cjc037_0421"
    INDEX 01 02:39:12
  TRACK 63 AUDIO
    TITLE "0:"
    INDEX 01 02:41:56
  TRACK 64 AUDIO
    TITLE "6:cjc037_0422"
    INDEX 01 02:45:20
  TRACK 65 AUDIO
    TITLE "0:"
    INDEX 01 02:47:49
  TRACK 66 AUDIO
    TITLE "7:cjc037_0423"
    INDEX 01 02:51:07
  TRACK 67 AUDIO
    TITLE "0:"
    INDEX 01 02:52:56
  TRACK 68 AUDIO
    TITLE "4:cjc037_0424"
    INDEX 01 02:55:13
  TRACK 69 AUDIO
    TITLE "0:"
    INDEX 01 02:56:28
  TRACK 70 AUDIO
    TITLE "5:cjc037_0425"
    INDEX 01 02:57:06
  TRACK 71 AUDIO
    TITLE "0:"
    INDEX 01 03:01:17
  TRACK 72 AUDIO
    TITLE "6:cjc037_0426"
    INDEX 01 03:04:55
  TRACK 73 AUDIO
    TITLE "0:"
    INDEX 01 03:08:25
  TRACK 74 AUDIO
    TITLE "7:cjc037_0427"
    INDEX 01 03:11:57
  TRACK 75 AUDIO
    TITLE "0:"
    INDEX 01 03:14:26
  TRACK 76 AUDIO
    TITLE "4:cjc037_0428"
    INDEX 01 03:16:62
  TRACK 77 AUDIO
    TITLE "0:"
    INDEX 01 03:18:14
  TRACK 78 AUDIO
    TITLE "5:cjc037_0429"
    INDEX 01 03:18:69
  TRACK 79 AUDIO
    TITLE "0:"
    INDEX 01 03:23:05
  TRACK 80 AUDIO
    TITLE "6:cjc037_0430"
    INDEX 01 03:26:39
  TRACK 81 AUDIO
    TITLE "0:"
    INDEX 01 03:29:47
  TRACK 82 AUDIO
    TITLE "7:cjc037_0431"
    INDEX 01 03:33:06
  TRACK 83 AUDIO
    TITLE "0:"
    INDEX 01 03:35:30
  TRACK 84 AUDIO
    TITLE "4:cjc037_0432"
    INDEX 01 03:37:64
  TRACK 85 AUDIO
    TITLE "0:"
    INDEX 01 03:39:10
  TRACK 86 AUDIO
    TITLE "5:cjc037_0433"
    INDEX 01 03:39:61
  TRACK 87 AUDIO
    TITLE "0:"
    INDEX 01 03:45:64
  TRACK 88 AUDIO
    TITLE "6:cjc037_0434"
    INDEX 01 03:49:22
  TRACK 89 AUDIO
    TITLE "0:"
    INDEX 01 03:53:04
  TRACK 90 AUDIO
    TITLE "7:cjc037_0435"
    INDEX 01 03:56:36
  TRACK 91 AUDIO
    TITLE "0:"
    INDEX 01 03:59:36
  TRACK 92 AUDIO
    TITLE "4:cjc037_0436"
    INDEX 01 04:01:69
  TRACK 93 AUDIO
    TITLE "0:"
    INDEX 01 04:03:24
  TRACK 94 AUDIO
    TITLE "5:cjc037_0437"
    INDEX 01 04:04:00
  TRACK 95 AUDIO
    TITLE "0:"
    INDEX 01 04:09:13
  TRACK 96 AUDIO
    TITLE "6:cjc037_0438"
    INDEX 01 04:12:49
  TRACK 97 AUDIO
    TITLE "0:"
    INDEX 01 04:17:09
  TRACK 98 AUDIO
    TITLE "7:cjc037_0439"
    INDEX 01 04:20:44
  TRACK 99 AUDIO
    TITLE "0:"
    INDEX 01 04:23:72
  TRACK 100 AUDIO
    TITLE "4:cjc037_0440"
    INDEX 01 04:26:29
  TRACK 101 AUDIO
    TITLE "0:"
    INDEX 01 04:27:58
  TRACK 102 AUDIO
    TITLE "5:cjc037_0441"
    INDEX 01 04:28:36
  TRACK 103 AUDIO
    TITLE "0:"
    INDEX 01 04:31:42
  TRACK 104 AUDIO
    TITLE "6:cjc037_0442"
    INDEX 01 04:35:03
  TRACK 105 AUDIO
    TITLE "0:"
    INDEX 01 04:37:60
  TRACK 106 AUDIO
    TITLE "7:cjc037_0443"
    INDEX 01 04:41:19
  TRACK 107 AUDIO
    TITLE "0:"
    INDEX 01 04:43:32
  TRACK 108 AUDIO
    TITLE "4:cjc037_0444"
    INDEX 01 04:45:64
  TRACK 109 AUDIO
    TITLE "0:"
    INDEX 01 04:47:16
  TRACK 110 AUDIO
    TITLE "5:cjc037_0445"
    INDEX 01 04:47:71
  TRACK 111 AUDIO
    TITLE "0:"
    INDEX 01 04:53:03
  TRACK 112 AUDIO
    TITLE "6:cjc037_0446"
    INDEX 01 04:56:42
  TRACK 113 AUDIO
    TITLE "0:"
    INDEX 01 05:00:40
  TRACK 114 AUDIO
    TITLE "7:cjc037_0447"
    INDEX 01 05:04:00
  TRACK 115 AUDIO
    TITLE "0:"
    INDEX 01 05:06:68
  TRACK 116 AUDIO
    TITLE "4:cjc037_0448"
    INDEX 01 05:09:29
  TRACK 117 AUDIO
    TITLE "0:"
    INDEX 01 05:11:01
  TRACK 118 AUDIO
    TITLE "5:cjc037_0449"
    INDEX 01 05:11:57
  TRACK 119 AUDIO
    TITLE "0:"
    INDEX 01 05:17:03
  TRACK 120 AUDIO
    TITLE "6:cjc037_0450"
    INDEX 01 05:20:43
  TRACK 121 AUDIO
    TITLE "0:"
    INDEX 01 05:25:14
  TRACK 122 AUDIO
    TITLE "7:cjc037_0451"
    INDEX 01 05:28:52
  TRACK 123 AUDIO
    TITLE "0:"
    INDEX 01 05:31:70
